<svg xmlns="http://www.w3.org/2000/svg" viewBox="0 0 27.819 29.063">
  <defs>
    <style>
      .cls-1 {
        fill: #868686;
      }
    </style>
  </defs>
  <g id="Calque_2" data-name="Calque 2" transform="translate(0 0)">
    <path id="Path_519" data-name="Path 519" class="cls-1" d="M27.457.234a1.019,1.019,0,0,0-.826-.245L.851,4.26A1.019,1.019,0,0,0,0,5.28V23.71a1.019,1.019,0,0,0,1.188,1.019L4.5,24.184v3.838a1.015,1.015,0,0,0,1.687.765l6.886-6.03,13.894-2.294a1.019,1.019,0,0,0,.856-1.019V1.009a1.019,1.019,0,0,0-.362-.775ZM25.78,18.583,12.446,20.789a1.055,1.055,0,0,0-.51.24l-5.4,4.745v-2.8a1.018,1.018,0,0,0-1.019-1.019H5.346l-3.308.561V6.131L25.78,2.211Z" transform="translate(0 0.022)"/>
    <path id="Path_520" data-name="Path 520" class="cls-1" d="M21.894,28.872a5.77,5.77,0,0,0,1.06-.092,6.116,6.116,0,0,0,4.964-5.066.765.765,0,0,0-1.488-.214A4.587,4.587,0,0,1,17.919,25a.765.765,0,1,0-1.34.739,6.116,6.116,0,0,0,5.316,3.129Z" transform="translate(-8.082 -11.256)"/>
    <path id="Path_521" data-name="Path 521" class="cls-1" d="M19.166,17.788a1.478,1.478,0,1,0-1.109-.244A1.483,1.483,0,0,0,19.166,17.788Z" transform="translate(-8.544 -7.267)"/>
    <path id="Path_522" data-name="Path 522" class="cls-1" d="M30.641,15.769a1.483,1.483,0,1,0-1.111-.244,1.483,1.483,0,0,0,1.111.244Z" transform="translate(-14.168 -6.277)"/>
  </g>
</svg>
