<svg xmlns="http://www.w3.org/2000/svg" viewBox="0 0 31.635 39.856">
  <defs>
    <style>
      .cls-1 {
        fill: #a0a0a0;
      }
    </style>
  </defs>
  <g id="Asset_2user" data-name="Asset 2user" transform="translate(0)">
    <g id="Calque_2" data-name="Calque 2" transform="translate(0)">
      <path id="Path_11" data-name="Path 11" class="cls-1" d="M19.33,18.456c-5.014,0-8.8-3.985-8.8-9.225S14.316,0,19.33,0s8.78,3.985,8.78,9.232S24.344,18.456,19.33,18.456Zm0-15.8c-3.56,0-6.143,2.763-6.143,6.575S15.77,15.8,19.33,15.8s6.123-2.763,6.123-6.568S22.883,2.657,19.33,2.657Z" transform="translate(-3.517 0)"/>
      <path id="Path_12" data-name="Path 12" class="cls-1" d="M1.318,50.122a1.328,1.328,0,0,1-.936-.385A1.328,1.328,0,0,1-.01,48.548L3.224,31.672A1.328,1.328,0,0,1,4.553,30.59H27.837a1.328,1.328,0,0,1,1.328,1.049l2.411,11.25a1.328,1.328,0,0,1-1.043,1.581L1.571,50.122a1.048,1.048,0,0,1-.252,0Zm4.31-16.876L2.972,47.114l25.689-4.961-1.9-8.906Z" transform="translate(0.03 -10.274)"/>
    </g>
  </g>
</svg>
