<svg id="Group_115" data-name="Group 115" xmlns="http://www.w3.org/2000/svg" viewBox="0 0 33.178 34.479">
  <defs>
    <style>
      .cls-1 {
        fill: #484848;
      }

      .cls-2 {
        fill: #efebe3;
      }
    </style>
  </defs>
  <rect id="Rectangle_113" data-name="Rectangle 113" class="cls-1" width="33.178" height="34.479" rx="3" transform="translate(0)"/>
  <g id="Asset_3insta" data-name="Asset 3insta" transform="translate(6.506 7.156)">
    <g id="Objects">
      <path id="Path_416" data-name="Path 416" class="cls-2" d="M9.91,1.786c2.646,0,2.949,0,4,.055a5.561,5.561,0,0,1,1.841.341,3.13,3.13,0,0,1,1.142.742,3.067,3.067,0,0,1,.737,1.142A5.342,5.342,0,0,1,17.974,5.9c.051,1.045.059,1.357.059,4s0,2.949-.059,4a5.342,5.342,0,0,1-.341,1.841,3.232,3.232,0,0,1-1.879,1.879,5.342,5.342,0,0,1-1.841.341c-1.045.051-1.357.059-4,.059s-2.949,0-4-.059a5.342,5.342,0,0,1-1.841-.341,3.067,3.067,0,0,1-1.142-.729,3.13,3.13,0,0,1-.742-1.142,5.561,5.561,0,0,1-.341-1.85c-.046-1.045-.055-1.357-.055-4s0-2.949.055-4a5.561,5.561,0,0,1,.341-1.841A3.274,3.274,0,0,1,4.066,2.182,5.561,5.561,0,0,1,5.9,1.841c1.045-.046,1.357-.055,4-.055M9.9,0C7.209,0,6.872,0,5.814.059a7.377,7.377,0,0,0-2.4.459A4.925,4.925,0,0,0,1.685,1.685,4.925,4.925,0,0,0,.518,3.417,7.377,7.377,0,0,0,.059,5.823C0,6.88,0,7.217,0,9.909S0,12.939.059,14A7.377,7.377,0,0,0,.518,16.4a4.925,4.925,0,0,0,1.167,1.753A4.858,4.858,0,0,0,3.417,19.3a7.255,7.255,0,0,0,2.406.463c1.058.046,1.395.059,4.087.059s3.029,0,4.087-.059A7.255,7.255,0,0,0,16.4,19.3,5.056,5.056,0,0,0,19.3,16.4,7.255,7.255,0,0,0,19.76,14c.046-1.058.059-1.395.059-4.087s0-3.029-.059-4.087A7.255,7.255,0,0,0,19.3,3.417a4.858,4.858,0,0,0-1.142-1.732A4.925,4.925,0,0,0,16.4.539,7.377,7.377,0,0,0,14,.059C12.939,0,12.6,0,9.91,0"/>
      <path id="Path_417" data-name="Path 417" class="cls-2" d="M16.53,11.44a5.09,5.09,0,1,0,5.09,5.09,5.09,5.09,0,0,0-5.09-5.09m0,8.393a3.3,3.3,0,1,1,3.3-3.3,3.3,3.3,0,0,1-3.3,3.3" transform="translate(-6.62 -6.62)"/>
      <path id="Path_418" data-name="Path 418" class="cls-2" d="M35.625,9.368A1.192,1.192,0,1,1,34.432,8.18a1.192,1.192,0,0,1,1.192,1.188" transform="translate(-19.235 -4.734)"/>
    </g>
  </g>
</svg>
