<svg id="Asset_5cart" data-name="Asset 5cart" xmlns="http://www.w3.org/2000/svg" viewBox="0 0 32.91 29.292">
  <defs>
    <style>
      .cls-1 {
        fill: #868686;
      }
    </style>
  </defs>
  <g id="Calque_2" data-name="Calque 2" transform="translate(0 0)">
    <path id="Path_30" data-name="Path 30" class="cls-1" d="M14.982,23.22a1.105,1.105,0,0,1-1.056-.785L9.2,6.921A1.11,1.11,0,0,1,10.262,5.49H35.9A1.105,1.105,0,0,1,37.006,6.6V18.754a1.105,1.105,0,0,1-.934,1.105L15.148,23.209ZM11.754,7.7l4.007,13.17L34.8,17.8V7.7ZM35.9,18.754Z" transform="translate(-4.096 -2.456)"/>
    <path id="Path_31" data-name="Path 31" class="cls-1" d="M24.891,46.29a4.145,4.145,0,1,1,4.14-4.14A4.145,4.145,0,0,1,24.891,46.29Zm0-6.079a1.934,1.934,0,1,0,1.929,1.934,1.934,1.934,0,0,0-1.929-1.934Z" transform="translate(-9.279 -16.998)"/>
    <path id="Path_32" data-name="Path 32" class="cls-1" d="M46.861,46.29A4.145,4.145,0,1,1,51,42.151,4.145,4.145,0,0,1,46.861,46.29Zm0-6.079a1.934,1.934,0,1,0,1.929,1.934,1.934,1.934,0,0,0-1.929-1.934Z" transform="translate(-19.107 -16.998)"/>
    <path id="Path_33" data-name="Path 33" class="cls-1" d="M6.291,5.654A1.105,1.105,0,0,1,5.241,4.9L4.506,2.686,1.6,4.117A1.106,1.106,0,1,1,.615,2.139L4.661.116A1.105,1.105,0,0,1,6.2.757L7.341,4.206a1.105,1.105,0,0,1-1.05,1.448Z" transform="translate(-0.003 0)"/>
  </g>
</svg>
