<svg xmlns="http://www.w3.org/2000/svg" viewBox="0 0 37.52 39.198">
  <defs>
    <style>
      .cls-1 {
        fill: #a0a0a0;
      }
    </style>
  </defs>
  <g id="Asset_11chat" data-name="Asset 11chat" transform="translate(0)">
    <g id="Calque_2" data-name="Calque 2" transform="translate(0 0)">
      <path id="Path_138" data-name="Path 138" class="cls-1" d="M37.031.323a1.375,1.375,0,0,0-1.114-.33L1.148,5.754A1.375,1.375,0,0,0,0,7.129V31.986A1.375,1.375,0,0,0,1.6,33.36l4.461-.736V37.8a1.368,1.368,0,0,0,2.275,1.031L17.625,30.7l18.739-3.093a1.375,1.375,0,0,0,1.155-1.375V1.368A1.375,1.375,0,0,0,37.031.323ZM34.77,25.07,16.787,28.047a1.423,1.423,0,0,0-.687.323l-7.287,6.4V30.989a1.373,1.373,0,0,0-1.375-1.375H7.211L2.75,30.37V8.277L34.77,2.99Z" transform="translate(0 0.022)"/>
      <path id="Path_139" data-name="Path 139" class="cls-1" d="M23.781,30.926a7.782,7.782,0,0,0,1.43-.124,8.249,8.249,0,0,0,6.7-6.833,1.031,1.031,0,0,0-2.007-.289,6.187,6.187,0,0,1-11.48,2.028,1.032,1.032,0,1,0-1.808,1,8.249,8.249,0,0,0,7.17,4.221Z" transform="translate(-5.152 -7.168)"/>
      <path id="Path_140" data-name="Path 140" class="cls-1" d="M19.773,18.814a1.994,1.994,0,1,0-1.5-.329,2,2,0,0,0,1.5.329Z" transform="translate(-5.447 -4.625)"/>
      <path id="Path_141" data-name="Path 141" class="cls-1" d="M31.25,16.795a2,2,0,1,0-1.5-.329,2,2,0,0,0,1.5.329Z" transform="translate(-9.032 -3.994)"/>
    </g>
  </g>
</svg>
