<svg id="Asset_3store" data-name="Asset 3store" xmlns="http://www.w3.org/2000/svg" viewBox="0 0 33.971 38.26">
  <defs>
    <style>
      .cls-1 {
        fill: #a0a0a0;
      }
    </style>
  </defs>
  <g id="Calque_2" data-name="Calque 2" transform="translate(0 0)">
    <path id="Path_13" data-name="Path 13" class="cls-1" d="M1.275,38.256A1.275,1.275,0,0,1,0,36.981V1.275A1.275,1.275,0,0,1,1.275,0H32.7a1.275,1.275,0,0,1,1.275,1.275V31.523A1.275,1.275,0,0,1,32.913,32.8L1.492,38.256a1.275,1.275,0,0,1-.217,0ZM2.55,2.55V35.463l28.87-5.012V2.55ZM32.7,31.523Z" transform="translate(0 0)"/>
    <path id="Path_14" data-name="Path 14" class="cls-1" d="M18.065,48.136a1.275,1.275,0,0,1-1.275-1.275V33.675A1.275,1.275,0,0,1,18.065,32.4h10.01a1.275,1.275,0,0,1,1.275,1.275V45.152a1.275,1.275,0,0,1-2.55,0V34.95H19.34v11.91A1.275,1.275,0,0,1,18.065,48.136Z" transform="translate(-6.085 -11.742)"/>
    <path id="Path_15" data-name="Path 15" class="cls-1" d="M14.83,10.27h1.709v.657H15.6v.485h.81v.638H15.6v.542h.937v.65H14.83Z" transform="translate(-5.374 -3.722)"/>
    <path id="Path_16" data-name="Path 16" class="cls-1" d="M21.035,10.226s-.988,1.671-1.084,1.824a.874.874,0,0,1-.727.453.771.771,0,0,1-.835-.8.8.8,0,0,1,.784-.8,1.275,1.275,0,0,1,.88.465l.389-.638a1.581,1.581,0,0,0-1.275-.587,1.562,1.562,0,0,0-1.588,1.53,1.524,1.524,0,0,0,1.428,1.562,1.683,1.683,0,0,0,1.39-.5h.695v.446h.74V10.226Zm.083,1.913h-.4l.4-.669Z" transform="translate(-6.371 -3.678)"/>
    <path id="Path_17" data-name="Path 17" class="cls-1" d="M25.123,13.241V10.978H24.53V10.27h1.957v.708h-.593v2.263Z" transform="translate(-8.89 -3.722)"/>
    <path id="Path_18" data-name="Path 18" class="cls-1" d="M29.412,12.106h-.8v1.135H27.85V10.27h.765V11.4h.8V10.27h.765v2.971h-.765Z" transform="translate(-10.093 -3.722)"/>
    <path id="Path_19" data-name="Path 19" class="cls-1" d="M31.87,13.241V10.27h.759v2.314h.9v.657Z" transform="translate(-11.55 -3.722)"/>
    <path id="Path_20" data-name="Path 20" class="cls-1" d="M34.239,10.61a1.581,1.581,0,0,1,2.187,0,1.5,1.5,0,0,1,.465,1.09,1.537,1.537,0,0,1-1.556,1.549,1.511,1.511,0,0,1-1.129-.472,1.568,1.568,0,0,1-.427-1.109,1.473,1.473,0,0,1,.459-1.078m1.1,1.913a.819.819,0,1,0-.778-.81.829.829,0,0,0,.8.835" transform="translate(-12.242 -3.686)"/>
    <path id="Path_21" data-name="Path 21" class="cls-1" d="M38.55,13.241V10.27h.695L40.4,11.921V10.27h.771v2.971h-.676l-1.173-1.658v1.658Z" transform="translate(-13.971 -3.722)"/>
    <path id="Path_22" data-name="Path 22" class="cls-1" d="M10.62,13.236V10.265H11.7a1.575,1.575,0,0,1,1.173.357,1.6,1.6,0,0,1,0,2.244,1.358,1.358,0,0,1-1.071.37Zm1.945-1.5A.772.772,0,0,0,11.7,10.9h-.306v1.683H11.7c.587,0,.867-.261.867-.848" transform="translate(-3.849 -3.717)"/>
  </g>
</svg>
